<svg width="1511" height="895" viewBox="0 0 1511 895" fill="none" xmlns="http://www.w3.org/2000/svg">
<path d="M282.921 738.154L336.468 893H2V2H1509V660.027C1442.38 657.67 1368.94 636.336 1291.87 603.219C1214.02 569.768 1132.59 524.346 1050.91 474.487C985.871 434.784 920.717 392.294 857.113 350.813C840.838 340.2 824.665 329.652 808.621 319.234C729.897 268.117 654.284 220.122 585.188 182.859C516.123 145.612 453.395 118.989 400.461 110.747C347.454 102.495 303.932 112.646 273.895 149.367C244.007 185.905 227.832 248.35 228.273 343.765C228.715 439.256 245.807 568.137 282.858 737.926L282.883 738.042L282.921 738.154Z" fill="#909AD1" stroke="black" stroke-width="4"/>
</svg>
